REM DIRINDEX 1\2\3,1\2\4,1\2\5,1\2\6
REM DIRNAME folder01,folder02,folder03,folder04,folder05,folder06
TITLE ""
FILE "087 087.mp3" MP3
  TRACK 01 AUDIO
    TITLE "0:"
    INDEX 01 00:00:00
  TRACK 02 AUDIO
    TITLE "3:cjc157_3284"
    INDEX 01 00:00:11
  TRACK 03 AUDIO
    TITLE "0:"
    INDEX 01 00:01:22
  TRACK 04 AUDIO
    TITLE "4:cjc157_3285"
    INDEX 01 00:01:66
  TRACK 05 AUDIO
    TITLE "0:"
    INDEX 01 00:03:00
  TRACK 06 AUDIO
    TITLE "5:cjc157_3286"
    INDEX 01 00:03:57
  TRACK 07 AUDIO
    TITLE "0:"
    INDEX 01 00:05:54
  TRACK 08 AUDIO
    TITLE "5:cjc157_3287"
    INDEX 01 00:06:22
  TRACK 09 AUDIO
    TITLE "0:"
    INDEX 01 00:08:42
  TRACK 10 AUDIO
    TITLE "3:cjc157_3288"
    INDEX 01 00:09:10
  TRACK 11 AUDIO
    TITLE "0:"
    INDEX 01 00:10:31
  TRACK 12 AUDIO
    TITLE "4:cjc157_3289"
    INDEX 01 00:11:01
  TRACK 13 AUDIO
    TITLE "0:"
    INDEX 01 00:12:38
  TRACK 14 AUDIO
    TITLE "5:cjc157_3290"
    INDEX 01 00:13:08
  TRACK 15 AUDIO
    TITLE "0:"
    INDEX 01 00:15:58
  TRACK 16 AUDIO
    TITLE "3:cjc157_3291"
    INDEX 01 00:16:32
  TRACK 17 AUDIO
    TITLE "0:"
    INDEX 01 00:17:57
  TRACK 18 AUDIO
    TITLE "4:cjc157_3292"
    INDEX 01 00:18:29
  TRACK 19 AUDIO
    TITLE "0:"
    INDEX 01 00:19:26
  TRACK 20 AUDIO
    TITLE "5:cjc157_3293"
    INDEX 01 00:19:71
  TRACK 21 AUDIO
    TITLE "0:"
    INDEX 01 00:22:48
  TRACK 22 AUDIO
    TITLE "5:cjc157_3294"
    INDEX 01 00:23:22
  TRACK 23 AUDIO
    TITLE "0:"
    INDEX 01 00:26:18
  TRACK 24 AUDIO
    TITLE "3:cjc157_3295"
    INDEX 01 00:26:66
  TRACK 25 AUDIO
    TITLE "0:"
    INDEX 01 00:28:13
  TRACK 26 AUDIO
    TITLE "4:cjc157_3296"
    INDEX 01 00:28:57
  TRACK 27 AUDIO
    TITLE "0:"
    INDEX 01 00:29:64
  TRACK 28 AUDIO
    TITLE "5:cjc157_3297"
    INDEX 01 00:30:36
  TRACK 29 AUDIO
    TITLE "0:"
    INDEX 01 00:33:30
  TRACK 30 AUDIO
    TITLE "3:cjc157_3298"
    INDEX 01 00:34:02
  TRACK 31 AUDIO
    TITLE "0:"
    INDEX 01 00:35:43
  TRACK 32 AUDIO
    TITLE "4:cjc157_3299"
    INDEX 01 00:36:15
  TRACK 33 AUDIO
    TITLE "0:"
    INDEX 01 00:37:22
  TRACK 34 AUDIO
    TITLE "5:cjc157_3300"
    INDEX 01 00:37:71
  TRACK 35 AUDIO
    TITLE "0:"
    INDEX 01 00:40:23
  TRACK 36 AUDIO
    TITLE "5:cjc157_3301"
    INDEX 01 00:40:72
  TRACK 37 AUDIO
    TITLE "0:"
    INDEX 01 00:42:61
  TRACK 38 AUDIO
    TITLE "3:cjc157_3302"
    INDEX 01 00:43:31
  TRACK 39 AUDIO
    TITLE "0:"
    INDEX 01 00:44:44
  TRACK 40 AUDIO
    TITLE "4:cjc157_3303"
    INDEX 01 00:45:12
  TRACK 41 AUDIO
    TITLE "0:"
    INDEX 01 00:48:26
  TRACK 42 AUDIO
    TITLE "5:cjc157_3304"
    INDEX 01 00:48:65
  TRACK 43 AUDIO
    TITLE "0:"
    INDEX 01 00:51:09
  TRACK 44 AUDIO
    TITLE "5:cjc157_3305"
    INDEX 01 00:51:50
  TRACK 45 AUDIO
    TITLE "0:"
    INDEX 01 00:54:01
  TRACK 46 AUDIO
    TITLE "3:cjc157_3306"
    INDEX 01 00:54:42
  TRACK 47 AUDIO
    TITLE "0:"
    INDEX 01 00:55:59
  TRACK 48 AUDIO
    TITLE "4:cjc157_3307"
    INDEX 01 00:56:27
  TRACK 49 AUDIO
    TITLE "0:"
    INDEX 01 00:57:45
  TRACK 50 AUDIO
    TITLE "5:cjc157_3308"
    INDEX 01 00:58:11
  TRACK 51 AUDIO
    TITLE "0:"
    INDEX 01 01:00:39
  TRACK 52 AUDIO
    TITLE "5:cjc157_3309"
    INDEX 01 01:01:07
  TRACK 53 AUDIO
    TITLE "0:"
    INDEX 01 01:02:65
  TRACK 54 AUDIO
    TITLE "3:cjc157_3310"
    INDEX 01 01:03:31
  TRACK 55 AUDIO
    TITLE "0:"
    INDEX 01 01:04:47
  TRACK 56 AUDIO
    TITLE "4:cjc157_3311"
    INDEX 01 01:05:21
  TRACK 57 AUDIO
    TITLE "0:"
    INDEX 01 01:06:34
  TRACK 58 AUDIO
    TITLE "5:cjc157_3312"
    INDEX 01 01:07:06
  TRACK 59 AUDIO
    TITLE "0:"
    INDEX 01 01:09:34
  TRACK 60 AUDIO
    TITLE "5:cjc157_3313"
    INDEX 01 01:09:73
  TRACK 61 AUDIO
    TITLE "0:"
    INDEX 01 01:12:17
  TRACK 62 AUDIO
    TITLE "3:cjc157_3314"
    INDEX 01 01:12:62
  TRACK 63 AUDIO
    TITLE "0:"
    INDEX 01 01:14:06
  TRACK 64 AUDIO
    TITLE "4:cjc157_3315"
    INDEX 01 01:14:53
  TRACK 65 AUDIO
    TITLE "0:"
    INDEX 01 01:16:05
  TRACK 66 AUDIO
    TITLE "5:cjc157_3316"
    INDEX 01 01:16:54
  TRACK 67 AUDIO
    TITLE "0:"
    INDEX 01 01:18:74
  TRACK 68 AUDIO
    TITLE "5:cjc157_3317"
    INDEX 01 01:19:42
  TRACK 69 AUDIO
    TITLE "0:"
    INDEX 01 01:21:49
  TRACK 70 AUDIO
    TITLE "3:cjc157_3318"
    INDEX 01 01:22:19
  TRACK 71 AUDIO
    TITLE "0:"
    INDEX 01 01:23:40
  TRACK 72 AUDIO
    TITLE "4:cjc157_3319"
    INDEX 01 01:24:10
  TRACK 73 AUDIO
    TITLE "0:"
    INDEX 01 01:25:58
  TRACK 74 AUDIO
    TITLE "5:cjc157_3320"
    INDEX 01 01:26:30
  TRACK 75 AUDIO
    TITLE "0:"
    INDEX 01 01:28:45
